# Blender v2.80 (sub 75) OBJ File: 'ShapesMeshes.blend'
# www.blender.org
o CubeButton
v -0.639944 -0.190548 1.000000
v -1.000000 -0.190548 0.639944
v -0.751207 -0.190548 0.982378
v -0.851580 -0.190548 0.931235
v -0.931235 -0.190548 0.851580
v -0.982378 -0.190548 0.751207
v -1.000000 0.190548 0.639944
v -0.639944 0.190548 1.000000
v -0.982378 0.190548 0.751207
v -0.931235 0.190548 0.851580
v -0.851580 0.190548 0.931235
v -0.751207 0.190548 0.982378
v -1.000000 -0.190548 -0.639944
v -0.639944 -0.190548 -1.000000
v -0.982378 -0.190548 -0.751207
v -0.931235 -0.190548 -0.851580
v -0.851580 -0.190548 -0.931235
v -0.751207 -0.190548 -0.982378
v -0.639944 0.190548 -1.000000
v -1.000000 0.190548 -0.639944
v -0.751207 0.190548 -0.982378
v -0.851580 0.190548 -0.931235
v -0.931235 0.190548 -0.851580
v -0.982378 0.190548 -0.751207
v 1.000000 -0.190548 0.639944
v 0.639944 -0.190548 1.000000
v 0.982378 -0.190548 0.751207
v 0.931235 -0.190548 0.851580
v 0.851580 -0.190548 0.931235
v 0.751207 -0.190548 0.982378
v 0.639944 0.190548 1.000000
v 1.000000 0.190548 0.639944
v 0.751207 0.190548 0.982378
v 0.851580 0.190548 0.931235
v 0.931235 0.190548 0.851580
v 0.982378 0.190548 0.751207
v 0.639944 -0.190548 -1.000000
v 1.000000 -0.190548 -0.639944
v 0.751207 -0.190548 -0.982378
v 0.851580 -0.190548 -0.931235
v 0.931235 -0.190548 -0.851580
v 0.982378 -0.190548 -0.751207
v 1.000000 0.190548 -0.639944
v 0.639944 0.190548 -1.000000
v 0.982378 0.190548 -0.751207
v 0.931235 0.190548 -0.851580
v 0.851580 0.190548 -0.931235
v 0.751207 0.190548 -0.982378
vt 0.375000 0.795007
vt 0.625000 0.795007
vt 0.625000 0.954993
vt 0.375000 0.954993
vt 0.375000 0.545007
vt 0.625000 0.545007
vt 0.625000 0.704993
vt 0.375000 0.704993
vt 0.625734 0.531099
vt 0.627865 0.518553
vt 0.631184 0.490497
vt 0.635366 0.480002
vt 0.670007 0.500000
vt 0.829993 0.500000
vt 0.697967 0.354800
vt 0.702149 0.348567
vt 0.705468 0.327149
vt 0.707599 0.322967
vt 0.875000 0.545007
vt 0.875000 0.704993
vt 0.872797 0.718901
vt 0.866404 0.731447
vt 0.856447 0.741404
vt 0.843901 0.747797
vt 0.829993 0.750000
vt 0.670007 0.750000
vt 0.635366 0.769998
vt 0.631184 0.759503
vt 0.627865 0.731447
vt 0.625734 0.718901
vt 0.375000 0.045007
vt 0.625000 0.045007
vt 0.625000 0.204993
vt 0.375000 0.204993
vt 0.375000 0.295007
vt 0.625000 0.295007
vt 0.625000 0.454993
vt 0.375000 0.454993
vt 0.625000 0.968901
vt 0.375000 0.968901
vt 0.625000 0.981447
vt 0.375000 0.981447
vt 0.625000 1.000000
vt 0.375000 1.000000
vt 0.375000 0.018553
vt 0.625000 0.018553
vt 0.625000 0.031099
vt 0.375000 0.031099
vt 0.302033 0.354800
vt 0.297851 0.348567
vt 0.294532 0.327149
vt 0.292401 0.322967
vt 0.374266 0.531099
vt 0.372135 0.518553
vt 0.368816 0.490497
vt 0.364634 0.480002
vt 0.364634 0.769998
vt 0.368816 0.759503
vt 0.372135 0.731447
vt 0.374266 0.718901
vt 0.125000 0.545007
vt 0.170007 0.500000
vt 0.329993 0.500000
vt 0.329993 0.750000
vt 0.170007 0.750000
vt 0.156099 0.747797
vt 0.143553 0.741404
vt 0.133596 0.731447
vt 0.127203 0.718901
vt 0.125000 0.704993
vn 0.0000 0.0000 1.0000
vn 1.0000 0.0000 0.0000
vn 0.0000 1.0000 0.0000
vn -1.0000 0.0000 0.0000
vn 0.0000 0.0000 -1.0000
vn -0.1564 0.0000 0.9877
vn -0.4540 0.0000 0.8910
vn -0.7071 0.0000 0.7071
vn -0.8910 0.0000 0.4540
vn -0.9877 0.0000 0.1564
vn -0.1564 0.0000 -0.9877
vn -0.4540 0.0000 -0.8910
vn -0.7071 0.0000 -0.7071
vn -0.8910 0.0000 -0.4540
vn -0.9877 0.0000 -0.1564
vn 0.9877 0.0000 -0.1564
vn 0.8910 0.0000 -0.4540
vn 0.7071 0.0000 -0.7071
vn 0.4540 0.0000 -0.8910
vn 0.1564 0.0000 -0.9877
vn 0.1564 0.0000 0.9877
vn 0.4540 0.0000 0.8910
vn 0.7071 0.0000 0.7071
vn 0.8910 0.0000 0.4540
vn 0.9877 0.0000 0.1564
vn 0.0000 -1.0000 0.0000
s off
f 26/1/1 31/2/1 8/3/1 1/4/1
f 38/5/2 43/6/2 32/7/2 25/8/2
f 43/6/3 45/9/3 46/10/3 47/11/3 48/12/3 44/13/3 19/14/3 21/15/3 22/16/3 23/17/3 24/18/3 20/19/3 7/20/3 9/21/3 10/22/3 11/23/3 12/24/3 8/25/3 31/26/3 33/27/3 34/28/3 35/29/3 36/30/3 32/7/3
f 2/31/4 7/32/4 20/33/4 13/34/4
f 14/35/5 19/36/5 44/37/5 37/38/5
f 1/4/6 8/3/6 12/39/6 3/40/6
f 3/40/7 12/39/7 11/41/7 4/42/7
f 4/42/8 11/41/8 10/43/8 5/44/8
f 5/45/9 10/46/9 9/47/9 6/48/9
f 6/48/10 9/47/10 7/32/10 2/31/10
f 19/36/11 14/35/11 18/49/11 21/15/11
f 21/15/12 18/49/12 17/50/12 22/16/12
f 22/16/13 17/50/13 16/51/13 23/17/13
f 23/17/14 16/51/14 15/52/14 24/18/14
f 24/18/15 15/52/15 13/34/15 20/33/15
f 43/6/16 38/5/16 42/53/16 45/9/16
f 45/9/17 42/53/17 41/54/17 46/10/17
f 46/10/18 41/54/18 40/55/18 47/11/18
f 47/11/19 40/55/19 39/56/19 48/12/19
f 48/12/20 39/56/20 37/38/20 44/37/20
f 31/2/21 26/1/21 30/57/21 33/27/21
f 33/27/22 30/57/22 29/58/22 34/28/22
f 34/28/23 29/58/23 28/59/23 35/29/23
f 35/29/24 28/59/24 27/60/24 36/30/24
f 36/30/25 27/60/25 25/8/25 32/7/25
f 13/61/26 15/52/26 16/51/26 17/50/26 18/49/26 14/62/26 37/63/26 39/56/26 40/55/26 41/54/26 42/53/26 38/5/26 25/8/26 27/60/26 28/59/26 29/58/26 30/57/26 26/64/26 1/65/26 3/66/26 4/67/26 5/68/26 6/69/26 2/70/26
