# Blender v2.80 (sub 75) OBJ File: 'ShapesMeshes.blend'
# www.blender.org
o MerkabaStar
v -0.000000 -0.199069 -0.755997
v -0.017686 -0.171088 -0.763724
v 0.017686 -0.171088 -0.763724
v -0.011786 -0.194844 -0.761999
v 0.011786 -0.194844 -0.761999
v -0.000000 -0.191343 -0.774617
v -0.006292 -0.165996 -0.770307
v -0.018052 -0.184930 -0.764737
v -0.005475 -0.182637 -0.777110
v 0.018052 -0.184930 -0.764737
v 0.006292 -0.165996 -0.770307
v 0.005475 -0.182637 -0.777110
v 0.654713 -0.199069 0.377999
v 0.670247 -0.171088 0.366545
v 0.652561 -0.171088 0.397179
v 0.665804 -0.194844 0.370793
v 0.654018 -0.194844 0.391206
v 0.670838 -0.191343 0.387309
v 0.670251 -0.165996 0.379705
v 0.671308 -0.184930 0.366735
v 0.675735 -0.182637 0.383814
v 0.653256 -0.184930 0.398002
v 0.663960 -0.165996 0.390602
v 0.670260 -0.182637 0.393297
v -0.654713 -0.199069 0.377999
v -0.652561 -0.171088 0.397179
v -0.670247 -0.171088 0.366545
v -0.654018 -0.194844 0.391206
v -0.665804 -0.194844 0.370793
v -0.670838 -0.191343 0.387309
v -0.663960 -0.165996 0.390602
v -0.653256 -0.184930 0.398002
v -0.670260 -0.182637 0.393296
v -0.671308 -0.184930 0.366735
v -0.670251 -0.165996 0.379705
v -0.675735 -0.182637 0.383814
v -0.000000 0.803214 0.020422
v 0.017686 0.803214 -0.010211
v -0.017686 0.803214 -0.010211
v 0.011399 0.808305 0.013846
v -0.011399 0.808306 0.013846
v -0.000000 0.818355 0.006204
v 0.006292 0.808305 -0.016795
v 0.017690 0.808305 0.002949
v 0.005373 0.818355 -0.003102
v -0.017690 0.808305 0.002949
v -0.006292 0.808306 -0.016795
v -0.005373 0.818355 -0.003102
v 0.534571 0.366174 -0.534571
v 0.552540 0.338193 -0.527528
v 0.527528 0.338193 -0.552540
v 0.547149 0.361949 -0.530481
v 0.530481 0.361950 -0.547149
v 0.547737 0.358448 -0.547737
v 0.549138 0.333101 -0.540241
v 0.553516 0.352035 -0.527986
v 0.553371 0.349742 -0.545629
v 0.527986 0.352035 -0.553516
v 0.540241 0.333101 -0.549138
v 0.545629 0.349742 -0.553371
v -0.730237 0.366174 -0.195666
v -0.733123 0.338193 -0.214750
v -0.742278 0.338193 -0.180582
v -0.732985 0.361950 -0.208604
v -0.739085 0.361950 -0.185836
v -0.748223 0.358448 -0.200486
v -0.742431 0.333102 -0.205447
v -0.734007 0.352035 -0.215365
v -0.749214 0.349742 -0.206419
v -0.743352 0.352036 -0.180491
v -0.745688 0.333102 -0.193293
v -0.752048 0.349742 -0.195843
v 0.195667 0.366174 0.730237
v 0.180583 0.338193 0.742278
v 0.214750 0.338193 0.733123
v 0.185836 0.361949 0.739085
v 0.208604 0.361949 0.732985
v 0.200486 0.358448 0.748223
v 0.193293 0.333101 0.745688
v 0.180492 0.352035 0.743352
v 0.195843 0.349742 0.752048
v 0.215366 0.352035 0.734007
v 0.205448 0.333101 0.742431
v 0.206419 0.349742 0.749214
v -0.014441 -0.636109 0.014441
v -0.005286 -0.636109 -0.019727
v 0.019726 -0.636109 0.005286
v -0.017851 -0.641200 0.001730
v -0.001730 -0.641200 0.017851
v -0.004387 -0.651250 0.004387
v 0.007427 -0.641200 -0.016324
v -0.014594 -0.641200 -0.010424
v -0.001606 -0.651250 -0.005992
v 0.010424 -0.641200 0.014594
v 0.016324 -0.641200 -0.007427
v 0.005992 -0.651249 0.001606
vt 0.052868 0.142192
vt 0.244798 0.253003
vt 0.244798 0.474625
vt 0.750000 0.472353
vt 0.942563 0.138824
vt 0.557437 0.138824
vt 0.441930 0.133182
vt 0.250000 0.243993
vt 0.058070 0.133182
vt 0.255202 0.474625
vt 0.255202 0.253003
vt 0.447132 0.142192
vt 0.052868 0.142192
vt 0.244798 0.253003
vt 0.244798 0.474625
vt 0.441930 0.133182
vt 0.250000 0.243993
vt 0.058070 0.133182
vt 0.255202 0.474625
vt 0.255202 0.253003
vt 0.447132 0.142192
vt 0.750000 0.472353
vt 0.746534 0.474118
vt 0.750000 0.477829
vt 0.753466 0.474118
vt 0.742144 0.476394
vt 0.744645 0.480725
vt 0.247129 0.477151
vt 0.246540 0.479631
vt 0.243687 0.475503
vt 0.252871 0.477151
vt 0.253460 0.479631
vt 0.256313 0.475503
vt 0.257744 0.476588
vt 0.255270 0.480872
vt 0.755355 0.480725
vt 0.942563 0.138824
vt 0.945825 0.140943
vt 0.947306 0.136085
vt 0.942359 0.134939
vt 0.949990 0.143606
vt 0.952491 0.139275
vt 0.448154 0.138911
vt 0.450596 0.138181
vt 0.448448 0.142716
vt 0.445283 0.133938
vt 0.447136 0.132188
vt 0.442135 0.131781
vt 0.442359 0.130000
vt 0.447306 0.130000
vt 0.947136 0.130000
vt 0.557437 0.138824
vt 0.557641 0.134939
vt 0.552694 0.136085
vt 0.554175 0.140943
vt 0.557865 0.130000
vt 0.552864 0.130000
vt 0.054717 0.133938
vt 0.052864 0.132188
vt 0.057865 0.131781
vt 0.051846 0.138911
vt 0.049404 0.138181
vt 0.051552 0.142716
vt 0.049897 0.143412
vt 0.047424 0.139128
vt 0.547509 0.139275
vt 0.253353 0.244749
vt 0.250000 0.246035
vt 0.246647 0.244749
vt 0.256224 0.249722
vt 0.253433 0.251982
vt 0.252871 0.255529
vt 0.247129 0.255529
vt 0.246567 0.251982
vt 0.243776 0.249722
vt 0.746534 0.474118
vt 0.750000 0.477829
vt 0.753466 0.474118
vt 0.742144 0.476394
vt 0.744645 0.480725
vt 0.247129 0.477151
vt 0.246540 0.479631
vt 0.243687 0.475503
vt 0.252871 0.477151
vt 0.253460 0.479631
vt 0.256313 0.475503
vt 0.257744 0.476588
vt 0.255270 0.480872
vt 0.755355 0.480725
vt 0.945825 0.140943
vt 0.947306 0.136085
vt 0.942359 0.134939
vt 0.949990 0.143606
vt 0.952491 0.139275
vt 0.448154 0.138911
vt 0.450596 0.138181
vt 0.448448 0.142716
vt 0.445283 0.133938
vt 0.447136 0.132188
vt 0.442135 0.131781
vt 0.442359 0.130000
vt 0.447306 0.130000
vt 0.947136 0.130000
vt 0.557641 0.134939
vt 0.552694 0.136085
vt 0.554175 0.140943
vt 0.557865 0.130000
vt 0.552864 0.130000
vt 0.054717 0.133938
vt 0.052864 0.132188
vt 0.057865 0.131781
vt 0.051846 0.138911
vt 0.049404 0.138181
vt 0.051552 0.142716
vt 0.049897 0.143412
vt 0.047424 0.139128
vt 0.547509 0.139275
vt 0.253353 0.244749
vt 0.250000 0.246035
vt 0.246647 0.244749
vt 0.256224 0.249722
vt 0.253433 0.251982
vt 0.252871 0.255529
vt 0.247129 0.255529
vt 0.246567 0.251982
vt 0.243776 0.249722
vt 0.450103 0.143412
vt 0.057641 0.130000
vt 0.242256 0.476588
vt 0.450103 0.143412
vt 0.057641 0.130000
vt 0.242256 0.476588
vn -0.9074 0.2660 -0.3253
vn -0.7275 0.5425 -0.4200
vn -0.7354 0.2660 -0.6232
vn 0.1474 0.9780 -0.1474
vn -0.2014 0.9780 -0.0540
vn 0.0540 0.9780 0.2014
vn 0.1720 0.2660 0.9485
vn 0.0000 0.5425 0.8401
vn -0.1720 0.2660 0.9485
vn 0.7354 0.2660 -0.6232
vn 0.7275 0.5425 -0.4200
vn 0.9074 0.2660 -0.3253
vn 0.8716 -0.2660 0.4116
vn 0.8114 -0.5425 0.2174
vn 0.9607 -0.2660 0.0793
vn -0.7923 -0.2660 0.5490
vn -0.5940 -0.5425 0.5940
vn -0.5490 -0.2660 0.7923
vn -0.0793 -0.2660 -0.9607
vn -0.2174 -0.5425 -0.8114
vn -0.4116 -0.2660 -0.8716
vn 0.0000 -0.9780 -0.2085
vn -0.4204 -0.7981 -0.4315
vn 0.0000 -0.6709 -0.7415
vn 0.4204 -0.7981 -0.4315
vn -0.7496 -0.2373 -0.6179
vn -0.3640 -0.0598 -0.9294
vn -0.3261 0.4518 -0.8303
vn 0.3261 0.4518 -0.8303
vn 0.3640 -0.0598 -0.9294
vn 0.7495 -0.2373 -0.6179
vn 0.1806 -0.9780 0.1043
vn 0.5839 -0.7981 -0.1483
vn 0.6422 -0.6709 0.3708
vn 0.1635 -0.7981 0.5799
vn 0.9099 -0.2373 -0.3402
vn 0.9869 -0.0598 0.1494
vn 0.8822 0.4518 0.1328
vn 0.5560 0.4518 0.6976
vn 0.6229 -0.0598 0.7800
vn 0.1603 -0.2373 0.9581
vn -0.1806 -0.9780 0.1043
vn -0.1635 -0.7981 0.5799
vn -0.6422 -0.6709 0.3708
vn -0.5839 -0.7981 -0.1483
vn -0.1603 -0.2373 0.9581
vn -0.6229 -0.0598 0.7800
vn -0.5561 0.4518 0.6976
vn -0.8822 0.4518 0.1328
vn -0.9869 -0.0598 0.1494
vn -0.9099 -0.2373 -0.3402
vn 0.3962 0.6933 0.6019
vn 0.0000 0.9170 0.3988
vn -0.3962 0.6934 0.6019
vn 0.7194 0.6933 0.0421
vn 0.3454 0.9170 -0.1994
vn 0.3232 0.6933 -0.6440
vn -0.3232 0.6934 -0.6440
vn -0.3454 0.9170 -0.1994
vn -0.7194 0.6933 0.0421
vn 0.6024 0.7981 -0.0078
vn 0.5243 0.6709 -0.5243
vn 0.0078 0.7981 -0.6024
vn 0.9669 0.2373 0.0931
vn 0.9146 0.0598 -0.3998
vn 0.8177 -0.4518 -0.3566
vn 0.3565 -0.4518 -0.8177
vn 0.3998 0.0598 -0.9146
vn -0.0931 0.2373 -0.9669
vn -0.3080 0.7981 -0.5178
vn -0.7163 0.6709 -0.1919
vn -0.5256 0.7981 0.2944
vn -0.4028 0.2373 -0.8839
vn -0.8036 0.0598 -0.5922
vn -0.7177 -0.4518 -0.5299
vn -0.8865 -0.4518 0.1000
vn -0.9920 0.0598 0.1111
vn -0.7909 0.2373 0.5641
vn -0.2944 0.7981 0.5256
vn 0.1919 0.6709 0.7163
vn 0.5178 0.7981 0.3080
vn -0.5641 0.2373 0.7909
vn -0.1111 0.0598 0.9920
vn -0.1000 -0.4518 0.8865
vn 0.5299 -0.4518 0.7177
vn 0.5922 0.0598 0.8036
vn 0.8839 0.2373 0.4028
vn -0.7057 -0.6933 0.1455
vn -0.2820 -0.9170 0.2820
vn -0.1455 -0.6933 0.7057
vn -0.5384 -0.6933 -0.4789
vn -0.1032 -0.9170 -0.3852
vn 0.2269 -0.6933 -0.6840
vn 0.6840 -0.6933 -0.2268
vn 0.3852 -0.9170 0.1032
vn 0.4789 -0.6933 0.5384
s 1
f 27/1/1 39/2/2 2/3/3
f 49/4/4 61/5/5 73/6/6
f 15/7/7 37/8/8 26/9/9
f 3/10/10 38/11/11 14/12/12
f 75/13/13 87/14/14 50/15/15
f 63/16/16 85/17/17 74/18/18
f 51/19/19 86/20/20 62/21/21
f 1/22/22 4/23/23 6/24/24 5/25/25
f 4/23/23 8/26/26 9/27/27 6/24/24
f 2/3/3 7/28/28 9/29/27 8/30/26
f 7/28/28 11/31/29 12/32/30 9/29/27
f 3/10/10 10/33/31 12/32/30 11/31/29
f 10/33/31 5/34/25 6/35/24 12/32/30
f 6/24/24 9/27/27 12/36/30
f 13/37/32 16/38/33 18/39/34 17/40/35
f 16/38/33 20/41/36 21/42/37 18/39/34
f 14/12/12 19/43/38 21/44/37 20/45/36
f 19/43/38 23/46/39 24/47/40 21/44/37
f 15/7/7 22/48/41 24/47/40 23/46/39
f 22/48/41 17/49/35 18/50/34 24/47/40
f 18/39/34 21/42/37 24/51/40
f 25/52/42 28/53/43 30/54/44 29/55/45
f 28/53/43 32/56/46 33/57/47 30/54/44
f 26/9/9 31/58/48 33/59/47 32/60/46
f 31/58/48 35/61/49 36/62/50 33/59/47
f 27/1/1 34/63/51 36/62/50 35/61/49
f 34/63/51 29/64/45 30/65/44 36/62/50
f 30/54/44 33/57/47 36/66/50
f 37/8/8 40/67/52 42/68/53 41/69/54
f 40/67/52 44/70/55 45/71/56 42/68/53
f 38/11/11 43/72/57 45/71/56 44/70/55
f 43/72/57 47/73/58 48/74/59 45/71/56
f 39/2/2 46/75/60 48/74/59 47/73/58
f 46/75/60 41/69/54 42/68/53 48/74/59
f 42/68/53 45/71/56 48/74/59
f 49/4/4 52/76/61 54/77/62 53/78/63
f 52/76/61 56/79/64 57/80/65 54/77/62
f 50/15/15 55/81/66 57/82/65 56/83/64
f 55/81/66 59/84/67 60/85/68 57/82/65
f 51/19/19 58/86/69 60/85/68 59/84/67
f 58/86/69 53/87/63 54/88/62 60/85/68
f 54/77/62 57/80/65 60/89/68
f 61/5/5 64/90/70 66/91/71 65/92/72
f 64/90/70 68/93/73 69/94/74 66/91/71
f 62/21/21 67/95/75 69/96/74 68/97/73
f 67/95/75 71/98/76 72/99/77 69/96/74
f 63/16/16 70/100/78 72/99/77 71/98/76
f 70/100/78 65/101/72 66/102/71 72/99/77
f 66/91/71 69/94/74 72/103/77
f 73/6/6 76/104/79 78/105/80 77/106/81
f 76/104/79 80/107/82 81/108/83 78/105/80
f 74/18/18 79/109/84 81/110/83 80/111/82
f 79/109/84 83/112/85 84/113/86 81/110/83
f 75/13/13 82/114/87 84/113/86 83/112/85
f 82/114/87 77/115/81 78/116/80 84/113/86
f 78/105/80 81/108/83 84/117/86
f 85/17/17 88/118/88 90/119/89 89/120/90
f 88/118/88 92/121/91 93/122/92 90/119/89
f 86/20/20 91/123/93 93/122/92 92/121/91
f 91/123/93 95/124/94 96/125/95 93/122/92
f 87/14/14 94/126/96 96/125/95 95/124/94
f 94/126/96 89/120/90 90/119/89 96/125/95
f 90/119/89 93/122/92 96/125/95
f 3/10/10 14/12/12 20/45/36 10/33/31
f 10/33/31 20/45/36 16/127/33 5/34/25
f 5/25/25 16/38/33 13/37/32 1/22/22
f 37/8/8 15/7/7 23/46/39 40/67/52
f 40/67/52 23/46/39 19/43/38 44/70/55
f 44/70/55 19/43/38 14/12/12 38/11/11
f 15/7/7 26/9/9 32/60/46 22/48/41
f 22/48/41 32/60/46 28/128/43 17/49/35
f 17/40/35 28/53/43 25/52/42 13/37/32
f 2/3/3 39/2/2 47/73/58 7/28/28
f 7/28/28 47/73/58 43/72/57 11/31/29
f 11/31/29 43/72/57 38/11/11 3/10/10
f 39/2/2 27/1/1 35/61/49 46/75/60
f 46/75/60 35/61/49 31/58/48 41/69/54
f 41/69/54 31/58/48 26/9/9 37/8/8
f 27/1/1 2/3/3 8/30/26 34/63/51
f 34/63/51 8/30/26 4/129/23 29/64/45
f 29/55/45 4/23/23 1/22/22 25/52/42
f 51/19/19 62/21/21 68/97/73 58/86/69
f 58/86/69 68/97/73 64/130/70 53/87/63
f 53/78/63 64/90/70 61/5/5 49/4/4
f 85/17/17 63/16/16 71/98/76 88/118/88
f 88/118/88 71/98/76 67/95/75 92/121/91
f 92/121/91 67/95/75 62/21/21 86/20/20
f 63/16/16 74/18/18 80/111/82 70/100/78
f 70/100/78 80/111/82 76/131/79 65/101/72
f 65/92/72 76/104/79 73/6/6 61/5/5
f 50/15/15 87/14/14 95/124/94 55/81/66
f 55/81/66 95/124/94 91/123/93 59/84/67
f 59/84/67 91/123/93 86/20/20 51/19/19
f 87/14/14 75/13/13 83/112/85 94/126/96
f 94/126/96 83/112/85 79/109/84 89/120/90
f 89/120/90 79/109/84 74/18/18 85/17/17
f 75/13/13 50/15/15 56/83/64 82/114/87
f 82/114/87 56/83/64 52/132/61 77/115/81
f 77/106/81 52/76/61 49/4/4 73/6/6
f 1/22/22 13/37/32 25/52/42
