# Blender v2.80 (sub 75) OBJ File: 'ShapesMeshes.blend'
# www.blender.org
o MerkabaStar
v -0.000000 -0.199069 -0.815997
v 0.706674 -0.199069 0.407999
v -0.706674 -0.199069 0.407999
v -0.000000 0.856027 -0.000000
v 0.576997 0.366174 -0.576997
v -0.788193 0.366174 -0.211195
v 0.211196 0.366174 0.788193
v -0.000000 -0.688921 -0.000000
vt 0.250000 0.490000
vt 0.250000 0.250000
vt 0.457846 0.130000
vt 0.042154 0.130000
vt 0.750000 0.490000
vt 0.957846 0.130000
vt 0.542154 0.130000
vt 0.250000 0.490000
vt 0.250000 0.250000
vt 0.457846 0.130000
vt 0.042154 0.130000
vt 0.750000 0.490000
vt 0.957846 0.130000
vt 0.542154 0.130000
vn 0.8077 0.3607 -0.4663
vn -0.0000 0.3607 0.9327
vn -0.8077 0.3607 -0.4663
vn 0.0000 -1.0000 0.0000
vn -0.2414 -0.3607 -0.9009
vn -0.6595 -0.3607 0.6595
vn 0.9009 -0.3607 0.2414
vn 0.0000 1.0000 0.0000
s off
f 1/1/1 4/2/1 2/3/1
f 2/3/2 4/2/2 3/4/2
f 3/4/3 4/2/3 1/1/3
f 1/5/4 2/6/4 3/7/4
f 5/8/5 8/9/5 6/10/5
f 6/10/6 8/9/6 7/11/6
f 7/11/7 8/9/7 5/8/7
f 5/12/8 6/13/8 7/14/8
