# Blender v2.80 (sub 75) OBJ File: 'ShapesMeshes.blend'
# www.blender.org
o Cube_Smooth.003_Cube.003
v -0.784056 -0.784056 0.755344
v -0.784056 0.784056 0.755344
v -0.777785 -0.777785 -0.777785
v -0.777785 0.777785 -0.777785
v 0.761615 -0.790327 0.761615
v 0.761615 0.790327 0.761615
v 0.755344 -0.784056 -0.784056
v 0.755344 0.784056 -0.784056
v -0.859698 0.423224 0.835464
v -0.851132 0.417358 -0.851132
v 0.835464 0.423224 -0.859698
v 0.844031 0.429090 0.844031
v -0.851132 0.851132 -0.417357
v 0.835464 -0.859698 -0.423224
v -0.851132 -0.851132 -0.417357
v 0.835464 0.859699 -0.423224
v 0.982867 0.468990 -0.468990
v -0.982867 0.468990 -0.468990
v 0.434188 0.846429 -0.846429
v 0.440054 -0.854995 0.830761
v 0.434188 -0.846429 -0.846429
v 0.440054 0.854995 0.830761
v 0.484658 0.463124 0.974301
v 0.484658 0.463124 -0.974301
v 0.484658 0.974301 -0.463124
v 0.484658 -0.974301 -0.463124
v -0.417357 -0.851132 -0.851132
v -0.423224 0.859698 0.835464
v -0.417357 0.851132 -0.851132
v -0.423224 -0.859698 0.835464
v -0.974301 -0.463124 0.484658
v 0.974301 -0.463124 0.484658
v -0.468990 -0.468990 0.982867
v -0.468990 -0.468990 -0.982867
v -0.468990 0.468990 -0.982867
v -0.468990 0.468990 0.982867
v -0.468990 -0.982867 -0.468990
v -0.468990 0.982867 -0.468990
v -0.846429 -0.846429 0.434188
v 0.830761 0.854995 0.440054
v 0.484658 -0.463124 -0.974301
v 0.484658 -0.463124 0.974301
v 0.982867 -0.468990 -0.468990
v -0.982867 -0.468990 -0.468990
v -0.846429 0.846429 0.434188
v 0.830761 -0.854995 0.440054
v -0.859698 -0.423224 0.835464
v 0.844031 -0.429090 0.844031
v 0.835464 -0.423224 -0.859698
v -0.851132 -0.417357 -0.851132
v -0.974301 0.463124 0.484658
v 0.974301 0.463124 0.484658
v 0.478792 0.965734 0.478792
v 0.478792 -0.965734 0.478792
v -0.463124 -0.974301 0.484658
v -0.463124 0.974301 0.484658
v -0.822331 0.668892 0.799446
v -0.815696 0.663607 -0.815696
v 0.799446 0.668892 -0.822331
v 0.806081 0.674177 0.806081
v 0.924833 0.732309 -0.440241
v -0.924833 0.732309 -0.440241
v 0.456490 0.727024 0.918199
v 0.456490 0.727024 -0.918199
v -0.440241 0.732309 -0.924833
v -0.440241 0.732309 0.924833
v -0.918199 0.727024 0.456490
v 0.918199 0.727024 0.456490
v -0.815696 0.815696 -0.663607
v 0.799446 -0.822331 -0.668892
v -0.924833 0.440241 -0.732309
v -0.815696 -0.815696 -0.663607
v 0.799446 0.822331 -0.668892
v 0.924833 0.440241 -0.732309
v 0.456490 -0.918199 -0.727024
v 0.456490 0.918199 -0.727024
v -0.924833 -0.440241 -0.732309
v 0.924833 -0.440241 -0.732309
v -0.440241 0.924833 -0.732309
v -0.440241 -0.924833 -0.732309
v 0.878389 0.695316 -0.695316
v -0.878389 0.695316 -0.695316
v -0.663607 -0.815696 -0.815696
v -0.668892 0.822331 0.799446
v -0.732309 0.440241 0.924833
v -0.732309 -0.924833 -0.440241
v -0.732309 -0.440241 0.924833
v -0.663607 0.815696 -0.815696
v -0.668892 -0.822331 0.799446
v -0.732309 0.440241 -0.924833
v -0.732309 0.924833 -0.440241
v -0.732309 -0.440241 -0.924833
v -0.727024 -0.918199 0.456490
v -0.727024 0.918199 0.456490
v -0.695316 0.695316 -0.878389
v -0.695316 0.695316 0.878389
v -0.695316 -0.878389 -0.695316
v -0.695316 0.878389 -0.695316
v -0.815696 -0.663607 -0.815696
v 0.799446 -0.668892 -0.822331
v 0.806081 -0.674177 0.806081
v -0.924833 -0.732309 -0.440241
v 0.924833 -0.732309 -0.440241
v 0.456490 -0.727024 0.918199
v 0.456490 -0.727024 -0.918199
v -0.440241 -0.732309 -0.924833
v -0.440241 -0.732309 0.924833
v -0.822331 -0.668892 0.799446
v 0.918199 -0.727024 0.456490
v -0.918199 -0.727024 0.456490
v -0.878389 -0.695316 -0.695316
v 0.878389 -0.695316 -0.695316
v -0.695316 -0.695316 0.878389
v -0.695316 -0.695316 -0.878389
vt 0.617187 0.242188
vt 0.625000 0.242188
vt 0.625000 0.250000
vt 0.617188 0.250000
vt 0.617188 0.484375
vt 0.625000 0.484375
vt 0.625000 0.500000
vt 0.617188 0.500000
vt 0.617188 0.734375
vt 0.625000 0.734375
vt 0.625000 0.750000
vt 0.617188 0.750000
vt 0.617187 0.992188
vt 0.625000 0.992188
vt 0.625000 1.000000
vt 0.617188 1.000000
vt 0.359375 0.734375
vt 0.375000 0.734375
vt 0.375000 0.750000
vt 0.359375 0.750000
vt 0.867188 0.734375
vt 0.875000 0.734375
vt 0.875000 0.750000
vt 0.867188 0.750000
vt 0.382812 0.507812
vt 0.390625 0.507813
vt 0.390625 0.515625
vt 0.382813 0.515625
vt 0.382812 0.750000
vt 0.390625 0.750000
vt 0.390625 0.765625
vt 0.382812 0.765625
vt 0.390625 0.734375
vt 0.609375 0.515625
vt 0.609375 0.734375
vt 0.859375 0.734375
vt 0.859375 0.515625
vt 0.867188 0.515625
vt 0.359375 0.515625
vt 0.375000 0.515625
vt 0.617188 0.515625
vt 0.382812 0.257812
vt 0.390625 0.257813
vt 0.390625 0.265625
vt 0.382813 0.265625
vt 0.382813 0.484375
vt 0.390625 0.484375
vt 0.390625 0.500000
vt 0.382812 0.500000
vt 0.609375 0.750000
vt 0.609375 0.484375
vt 0.609375 0.500000
vt 0.609375 0.242187
vt 0.609375 0.250000
vt 0.390625 0.250000
vt 0.390625 0.242188
vt 0.609375 0.234375
vt 0.390625 0.234375
vt 0.390625 0.015625
vt 0.609375 0.015625
vt 0.382813 0.734375
vt 0.609375 0.765625
vt 0.609375 0.984375
vt 0.390625 0.984375
vt 0.640625 0.734375
vt 0.859375 0.750000
vt 0.640625 0.750000
vt 0.617188 0.265625
vt 0.609375 0.265625
vt 0.609375 0.507812
vt 0.640625 0.515625
vt 0.359375 0.507812
vt 0.140625 0.515625
vt 0.140625 0.507812
vt 0.382812 0.992188
vt 0.390625 0.992188
vt 0.390625 1.000000
vt 0.382812 1.000000
vt 0.617188 0.507813
vt 0.625000 0.507813
vt 0.625000 0.515625
vt 0.375000 0.507812
vt 0.867188 0.507812
vt 0.875000 0.507812
vt 0.875000 0.515625
vt 0.617188 0.015625
vt 0.617188 0.234375
vt 0.859375 0.507812
vt 0.640625 0.507812
vt 0.625000 0.765625
vt 0.617187 0.765625
vt 0.382812 0.984375
vt 0.375000 0.984375
vt 0.375000 0.765625
vt 0.140625 0.734375
vt 0.140625 0.750000
vt 0.132812 0.507812
vt 0.132812 0.515625
vt 0.609375 0.257812
vt 0.617188 0.257813
vt 0.625000 0.257812
vt 0.625000 0.265625
vt 0.132813 0.734375
vt 0.132812 0.750000
vt 0.617188 0.984375
vt 0.375000 0.484375
vt 0.375000 0.265625
vt 0.390625 0.000000
vt 0.609375 0.000000
vt 0.382812 0.242188
vt 0.382812 0.250000
vt 0.382812 0.015625
vt 0.382812 0.234375
vt 0.375000 0.234375
vt 0.375000 0.015625
vt 0.617188 0.000000
vt 0.625000 0.000000
vt 0.625000 0.015625
vt 0.125000 0.734375
vt 0.125000 0.515625
vt 0.609375 0.992187
vt 0.609375 1.000000
vt 0.382812 0.000000
vt 0.625000 0.984375
vt 0.625000 0.234375
vt 0.132812 0.500000
vt 0.140625 0.500000
vt 0.640625 0.500000
vt 0.859375 0.500000
vt 0.867188 0.500000
vt 0.875000 0.500000
vt 0.359375 0.500000
vt 0.375000 0.500000
vt 0.125000 0.500000
vt 0.125000 0.507812
vt 0.125000 0.750000
vt 0.375000 0.250000
vt 0.375000 0.257812
vt 0.375000 0.992188
vt 0.375000 0.242188
vt 0.375000 0.000000
vt 0.375000 1.000000
vn -0.8626 0.3577 -0.3577
vn -0.6696 0.6696 -0.3211
vn -0.5773 0.5773 -0.5773
vn -0.6696 0.3211 -0.6696
vn 0.1561 0.3624 -0.9188
vn 0.1350 0.7006 -0.7006
vn 0.4482 0.6321 -0.6321
vn 0.5669 0.3422 -0.7493
vn 0.9070 0.3867 0.1668
vn 0.5979 0.7878 0.1477
vn 0.5067 0.6975 0.5067
vn 0.6579 0.3664 0.6579
vn -0.3776 0.3776 0.8455
vn -0.3422 0.7493 0.5669
vn -0.6321 0.6321 0.4482
vn -0.7493 0.3422 0.5669
vn 0.1569 -0.9750 0.1569
vn 0.5979 -0.7878 0.1477
vn 0.5067 -0.6975 0.5067
vn 0.1477 -0.7878 0.5979
vn -0.3624 0.9188 0.1561
vn -0.7006 0.7006 0.1350
vn 0.8455 -0.3776 -0.3776
vn 0.9072 -0.1098 -0.4061
vn 0.9877 -0.1122 -0.1085
vn 0.9086 -0.4042 -0.1053
vn 0.6579 -0.3664 0.6579
vn 0.7030 -0.1078 0.7030
vn 0.1816 -0.1100 0.9772
vn 0.1668 -0.3867 0.9070
vn 0.9772 -0.1100 0.1816
vn 0.9877 0.1122 -0.1085
vn 0.9772 0.1100 0.1816
vn -0.1049 0.9807 0.1651
vn -0.1078 0.9883 -0.1078
vn -0.3785 0.9196 -0.1055
vn 0.1651 -0.9807 -0.1049
vn 0.5952 -0.7976 -0.0974
vn 0.9086 0.4042 -0.1053
vn -0.3577 -0.3577 -0.8626
vn -0.3806 -0.1100 -0.9181
vn -0.1085 -0.1122 -0.9877
vn -0.1055 -0.3785 -0.9196
vn 0.1561 -0.3624 -0.9188
vn 0.1661 -0.1093 -0.9800
vn 0.5947 -0.1021 -0.7974
vn 0.5669 -0.3422 -0.7493
vn 0.7030 0.1078 0.7030
vn 0.1661 0.1093 -0.9800
vn 0.5947 0.1021 -0.7974
vn -0.9181 0.1100 -0.3806
vn -0.7038 0.0957 -0.7038
vn -0.7038 -0.0957 -0.7038
vn -0.9181 -0.1100 -0.3806
vn -0.9877 0.1122 -0.1085
vn -0.9877 -0.1122 -0.1085
vn -0.9800 -0.1093 0.1661
vn -0.9800 0.1093 0.1661
vn 0.9070 -0.3867 0.1668
vn 0.1816 0.1100 0.9772
vn -0.1085 0.1122 0.9877
vn -0.1085 -0.1122 0.9877
vn 0.1569 0.9750 0.1569
vn -0.0974 0.7976 0.5952
vn 0.1477 0.7878 0.5979
vn -0.1055 0.3785 -0.9196
vn -0.1085 0.1122 -0.9877
vn 0.9072 0.1098 -0.4061
vn 0.1651 0.9807 -0.1049
vn 0.1561 -0.9188 -0.3624
vn -0.1078 -0.9883 -0.1078
vn -0.1055 -0.9196 -0.3785
vn -0.3776 -0.3776 0.8455
vn -0.4061 -0.1098 0.9072
vn -0.7974 -0.1021 0.5947
vn -0.7493 -0.3422 0.5669
vn 0.8455 0.3776 -0.3776
vn 0.5669 0.7493 -0.3422
vn 0.5952 0.7976 -0.0974
vn 0.5669 -0.7493 -0.3422
vn -0.3577 0.8626 -0.3577
vn -0.7042 0.7042 -0.0909
vn -0.9188 0.3624 0.1561
vn -0.9196 0.3785 -0.1055
vn -0.1055 0.9196 -0.3785
vn 0.1561 0.9188 -0.3624
vn 0.1668 0.3867 0.9070
vn -0.1053 -0.4042 0.9086
vn -0.0974 -0.7976 0.5952
vn -0.1049 -0.9807 0.1651
vn -0.3577 -0.8626 -0.3577
vn -0.3785 -0.9196 -0.1055
vn -0.3806 0.1100 -0.9181
vn -0.3577 0.3577 -0.8626
vn -0.3211 0.6696 -0.6696
vn -0.0909 0.7042 -0.7042
vn -0.3624 -0.9188 0.1561
vn -0.3422 -0.7493 0.5669
vn -0.1053 0.4042 0.9086
vn 0.1350 -0.7006 -0.7006
vn -0.0909 -0.7042 -0.7042
vn -0.7974 0.1021 0.5947
vn -0.8626 -0.3577 -0.3577
vn -0.6696 -0.3211 -0.6696
vn -0.9188 -0.3624 0.1561
vn -0.9196 -0.3785 -0.1055
vn -0.7042 -0.7042 -0.0909
vn -0.7006 -0.7006 0.1350
vn -0.4061 0.1098 0.9072
vn -0.3211 -0.6696 -0.6696
vn 0.4482 -0.6321 -0.6321
vn -0.5773 -0.5773 -0.5773
vn -0.6696 -0.6696 -0.3211
vn -0.6321 -0.6321 0.4482
s 1
f 82/1/1 69/2/2 4/3/3 58/4/4
f 64/5/5 19/6/6 8/7/7 59/8/8
f 68/9/9 40/10/10 6/11/11 60/12/12
f 96/13/13 84/14/14 2/15/15 57/16/16
f 54/17/17 46/18/18 5/19/19 20/20/20
f 94/21/21 45/22/22 2/23/15 84/24/14
f 112/25/23 78/26/24 43/27/25 103/28/26
f 101/29/27 48/30/28 42/31/29 104/32/30
f 32/33/31 43/27/25 17/34/32 52/35/33
f 94/21/21 56/36/34 38/37/35 91/38/36
f 46/18/18 54/17/17 26/39/37 14/40/38
f 61/41/39 68/9/9 52/35/33 17/34/32
f 114/42/40 92/43/41 34/44/42 106/45/43
f 105/46/44 41/47/45 49/48/46 100/49/47
f 12/50/48 48/30/28 32/33/31 52/35/33
f 24/51/49 11/52/50 49/48/46 41/47/45
f 71/53/51 10/54/52 50/55/53 77/56/54
f 18/57/55 44/58/56 31/59/57 51/60/58
f 109/61/59 32/33/31 48/30/28 101/29/27
f 23/62/60 36/63/61 33/64/62 42/31/29
f 53/65/63 56/36/34 28/66/64 22/67/65
f 65/68/66 64/5/5 24/51/49 35/69/67
f 74/70/68 78/26/24 49/48/46 11/52/50
f 56/36/34 53/65/63 25/71/69 38/37/35
f 75/72/70 26/39/37 37/73/71 80/74/72
f 113/75/73 87/76/74 47/77/75 108/78/76
f 81/79/77 73/80/78 16/81/79 61/41/39
f 75/72/70 70/82/80 14/40/38 26/39/37
f 98/83/81 69/84/2 13/85/82 91/38/36
f 67/86/83 62/87/84 18/57/55 51/60/58
f 79/88/85 38/37/35 25/71/69 76/89/86
f 73/80/78 76/89/86 25/71/69 16/81/79
f 12/50/48 23/62/60 42/31/29 48/30/28
f 60/12/12 6/11/11 22/90/65 63/91/87
f 40/10/10 53/65/63 22/67/65 6/11/11
f 107/92/88 30/93/89 20/94/20 104/32/30
f 55/95/90 54/17/17 20/20/20 30/96/89
f 24/51/49 41/47/45 34/44/42 35/69/67
f 97/97/91 80/74/72 37/73/71 86/98/92
f 90/99/93 35/69/67 34/44/42 92/43/41
f 95/100/94 88/101/95 29/102/96 65/68/66
f 93/103/97 55/95/90 30/96/89 89/104/98
f 63/91/87 66/105/99 36/63/61 23/62/60
f 106/45/43 105/46/44 21/106/100 27/107/101
f 103/28/26 109/61/59 46/18/18 14/40/38
f 47/108/75 9/109/102 51/60/58 31/59/57
f 111/110/103 77/56/54 50/55/53 99/111/104
f 110/112/105 102/113/106 15/114/107 39/115/108
f 57/116/16 2/117/15 45/118/22 67/86/83
f 86/98/92 93/103/97 39/119/108 15/120/107
f 25/71/69 53/65/63 40/10/10 16/81/79
f 85/121/109 9/122/102 47/77/75 87/76/74
f 108/123/76 47/108/75 31/59/57 110/112/105
f 26/39/37 54/17/17 55/95/90 37/73/71
f 9/109/102 57/116/16 67/86/83 51/60/58
f 22/90/65 28/124/64 66/105/99 63/91/87
f 90/99/93 95/100/94 65/68/66 35/69/67
f 12/50/48 60/12/12 63/91/87 23/62/60
f 45/118/22 13/125/82 62/87/84 67/86/83
f 74/70/68 81/79/77 61/41/39 17/34/32
f 29/102/96 19/6/6 64/5/5 65/68/66
f 16/81/79 40/10/10 68/9/9 61/41/39
f 85/121/109 96/13/13 57/16/16 9/122/102
f 52/35/33 68/9/9 60/12/12 12/50/48
f 24/51/49 64/5/5 59/8/8 11/52/50
f 71/53/51 82/1/1 58/4/4 10/54/52
f 18/57/55 62/87/84 82/1/1 71/53/51
f 11/52/50 59/8/8 81/79/77 74/70/68
f 102/113/106 44/58/56 77/56/54 111/110/103
f 83/126/110 27/127/101 80/74/72 97/97/91
f 8/7/7 19/128/6 76/89/86 73/80/78
f 29/129/96 79/88/85 76/89/86 19/128/6
f 88/130/95 4/131/3 69/84/2 98/83/81
f 21/132/100 7/133/111 70/82/80 75/72/70
f 59/8/8 8/7/7 73/80/78 81/79/77
f 21/132/100 75/72/70 80/74/72 27/127/101
f 17/34/32 43/27/25 78/26/24 74/70/68
f 18/57/55 71/53/51 77/56/54 44/58/56
f 100/49/47 49/48/46 78/26/24 112/25/23
f 62/87/84 13/125/82 69/2/2 82/1/1
f 29/129/96 88/130/95 98/83/81 79/88/85
f 3/134/112 83/126/110 97/97/91 72/135/113
f 36/63/61 66/105/99 96/13/13 85/121/109
f 10/54/52 58/4/4 95/100/94 90/99/93
f 36/63/61 85/121/109 87/76/74 33/64/62
f 37/73/71 55/95/90 93/103/97 86/98/92
f 39/119/108 93/103/97 89/104/98 1/136/114
f 58/4/4 4/3/3 88/101/95 95/100/94
f 10/54/52 90/99/93 92/43/41 50/55/53
f 72/135/113 97/97/91 86/98/92 15/120/107
f 79/88/85 98/83/81 91/38/36 38/37/35
f 107/92/88 33/64/62 87/76/74 113/75/73
f 99/111/104 50/55/53 92/43/41 114/42/40
f 45/22/22 94/21/21 91/38/36 13/85/82
f 56/36/34 94/21/21 84/24/14 28/66/64
f 66/105/99 28/124/64 84/14/14 96/13/13
f 3/137/112 99/111/104 114/42/40 83/138/110
f 30/93/89 107/92/88 113/75/73 89/139/98
f 7/133/111 100/49/47 112/25/23 70/82/80
f 15/114/107 102/113/106 111/110/103 72/140/113
f 1/141/114 108/123/76 110/112/105 39/115/108
f 31/59/57 44/58/56 102/113/106 110/112/105
f 72/140/113 111/110/103 99/111/104 3/137/112
f 43/27/25 32/33/31 109/61/59 103/28/26
f 34/44/42 41/47/45 105/46/44 106/45/43
f 33/64/62 107/92/88 104/32/30 42/31/29
f 89/139/98 113/75/73 108/78/76 1/142/114
f 46/18/18 109/61/59 101/29/27 5/19/19
f 21/106/100 105/46/44 100/49/47 7/133/111
f 83/138/110 114/42/40 106/45/43 27/107/101
f 5/19/19 101/29/27 104/32/30 20/94/20
f 70/82/80 112/25/23 103/28/26 14/40/38
